<!-- Generated by IcoMoon.io -->
<svg version="1.1" xmlns="http://www.w3.org/2000/svg" width="768" height="768" viewBox="0 0 768 768">
<title></title>
<g id="icomoon-ignore">
</g>
<path d="M661.376 425.984c1.888-13.664 2.848-27.072 2.848-40.032 0-77.984-27.072-145.408-80.416-200.416-53.92-55.52-120.16-83.68-196.864-83.68-8.928 0-17.472 0.416-25.632 1.216-24.192-11.2-50.176-16.832-77.632-16.832-51.488 0-97.696 19.52-133.568 56.48-35.36 36.32-54.112 82.72-54.112 134.144 0 26.624 4.992 51.808 14.912 75.136-1.504 11.424-2.24 22.816-2.24 33.984 0 78.016 27.296 145.504 81.024 200.544 54.176 55.424 120.576 83.52 197.248 83.52 8.128 0 17.504-0.64 28.672-1.92 22.080 9.056 45.088 13.632 68.672 13.632 50.816 0 96.8-19.648 133.024-56.864 35.744-36.576 54.688-83.2 54.688-134.752 0-21.664-3.552-43.168-10.624-64.16zM496 491.136c-9.088 13.664-23.328 24.992-42.848 34.080-19.488 7.776-41.92 11.68-67.2 11.68-30.528 0-56.192-5.536-76.928-16.608-14.944-8.384-26.656-19.136-35.072-32.096-9.088-14.304-13.696-27.584-13.696-39.936 0-7.776 2.944-14.624 8.768-20.448 5.888-5.888 13.312-8.768 22.4-8.768 6.496 0 12.992 2.304 19.488 6.816 5.184 5.184 9.056 11.712 11.648 19.488 0.672 0.64 4.896 8.096 12.672 22.4 3.264 4.512 9.088 9.056 17.504 13.6 7.84 3.904 18.176 5.856 31.2 5.856 17.536 0 32.16-3.872 43.84-11.648 10.368-7.168 15.552-16.224 15.552-27.296 0-9.088-2.944-15.936-8.768-20.448-5.856-5.888-13.28-10.368-22.368-13.664-2.592-0.672-6.016-1.504-10.208-2.4-4.256-0.992-9.12-2.272-14.624-3.936-5.504-1.632-10.24-2.752-14.112-3.392-22.048-4.512-40.864-10.368-56.512-17.536-13.632-5.184-25.952-14.24-36.992-27.232-9.056-12.352-13.632-26.976-13.632-43.84 0-16.896 4.864-31.808 14.624-44.8 9.728-12.992 23.68-22.752 41.856-29.216 18.208-7.168 39.008-10.688 62.368-10.688 17.536 0 34.112 2.24 49.664 6.816 14.976 5.184 26.976 11.36 36.064 18.528 8.416 7.776 15.264 15.552 20.448 23.328 4.544 10.368 6.848 18.848 6.848 25.312 0 8.48-2.944 15.616-8.8 21.408-6.432 6.528-13.952 9.792-22.368 9.792-7.136 0-13.312-1.952-18.496-5.888-3.264-3.232-7.456-9.056-12.672-17.504-3.872-9.088-10.048-17.184-18.464-24.384-7.776-5.824-19.808-8.736-36.064-8.736-16.224 0-28.544 3.264-36.992 9.76-9.088 5.888-13.632 12.672-13.632 20.448 0 5.184 1.6 9.472 4.864 12.672 3.264 4.576 7.424 8.16 12.672 10.752 3.264 1.92 8.768 4.224 16.576 6.784 1.952 0.672 6.304 1.824 13.12 3.392 6.816 1.696 12.512 2.784 17.056 3.424 9.056 1.952 24.672 6.144 46.752 12.672 12.992 4.512 25.312 10.336 36.992 17.536 11.072 7.744 19.168 16.544 24.384 26.24 5.184 11.68 7.744 24.672 7.744 38.944-0.064 17.536-4.928 33.792-14.656 48.736z"></path>
</svg>
