<!-- Generated by IcoMoon.io -->
<svg version="1.1" xmlns="http://www.w3.org/2000/svg" width="768" height="768" viewBox="0 0 768 768">
<title></title>
<g id="icomoon-ignore">
</g>
<path d="M605.44 280.832c-10.528 61.728-38.752 120.256-84.768 175.36-45.952 55.2-86.72 94.624-122.208 118.24-22.368 10.592-41.376 10.88-57.152 1.088-15.776-9.92-28.256-24.032-37.408-42.4-5.28-10.496-18.080-50.208-38.464-119.296-20.352-68.96-32.544-106.080-36.448-111.328-2.656-5.216-9.216-5.888-19.712-1.952-10.56 3.904-17.76 7.232-21.696 9.888-3.936 2.592-7.232 5.28-9.856 7.84l-17.728-23.584 19.712-23.68c14.464-15.744 32.832-32.224 55.168-49.28 22.4-17.088 42.048-27.584 59.136-31.584 11.872-2.56 21.728-0.896 29.568 4.992 7.904 5.888 14.464 15.488 19.712 28.608 5.28 13.088 9.248 25.952 11.808 38.368 2.656 12.544 5.28 27.328 7.936 44.384 2.592 17.088 5.248 30.24 7.872 39.424 14.432 61.76 26.272 92.672 35.488 92.672 13.12 0 34.144-27.616 63.072-82.88 13.12-24.928 13.824-45.632 1.984-62.112-11.808-16.384-30.176-16.704-55.168-0.928 3.936-24.96 15.104-46.592 33.472-64.992 32.832-35.488 69.024-48.672 108.416-39.488 40.736 7.904 56.48 38.816 47.264 92.64z"></path>
</svg>
